<svg width="156" height="177" viewBox="0 0 156 177" fill="none" xmlns="http://www.w3.org/2000/svg">
<path d="M113.973 2.4196C126.196 9.7689 124.386 28.4 129.793 41.5979C133.755 51.2672 139.978 59.8582 141.728 70.1601C143.416 80.0923 138.091 89.9918 139.705 99.9362C142.347 116.213 159.279 130.937 154.138 146.605C149.621 160.367 131.318 165.161 117.216 168.465C104.055 171.549 90.8174 163.336 77.3581 164.594C62.6086 165.974 49.5063 179.265 35.023 176.153C20.7438 173.084 7.14681 161.983 1.85543 148.37C-3.59758 134.342 5.75403 119.08 7.0086 104.082C7.88434 93.6116 8.86806 83.4613 8.16151 72.9786C7.19355 58.6175 -4.68903 43.4859 2.06773 30.7767C8.439 18.7926 26.0854 19.0408 39.0213 14.9328C50.4546 11.3019 62.0381 9.95002 73.8703 7.97463C87.3502 5.72416 102.26 -4.62244 113.973 2.4196Z" fill="#19E7C8" fill-opacity="0.4"/>
</svg>
