<svg width="196" height="191" viewBox="0 0 196 191" fill="none" xmlns="http://www.w3.org/2000/svg">
<path d="M141.563 12.7665C156.684 20.3859 171.078 29.9198 180.561 43.9467C190.123 58.0901 194.191 75.0716 195.209 92.1139C196.231 109.218 194.668 126.857 186.411 141.871C178.267 156.677 164.091 166.85 149.458 175.299C135.354 183.442 119.83 187.972 103.633 189.665C86.8315 191.422 69.3822 192.284 54.0114 185.276C38.3773 178.148 26.7208 164.71 17.3319 150.32C7.93974 135.924 1.01186 119.815 0.103403 102.651C-0.804565 85.4961 4.35261 68.738 12.2053 53.4589C20.0323 38.2296 30.7794 24.5494 45.082 15.1352C59.4198 5.69788 76.2308 0.443056 93.3906 0.0217737C110.283 -0.392951 126.473 5.16262 141.563 12.7665Z" fill="#19E7C8" fill-opacity="0.4"/>
</svg>
