<svg width="183" height="192" viewBox="0 0 183 192" fill="none" xmlns="http://www.w3.org/2000/svg">
<path d="M114.764 3.66434C125.474 9.79842 125.794 26.3954 135.6 33.89C144.15 40.4238 159.046 35.0584 166.273 43.0305C173.3 50.7823 168.901 63.5902 171.669 73.68C174.398 83.625 184.767 92.287 182.552 102.359C180.233 112.903 167.45 117.42 160.275 125.486C154.633 131.829 149.222 138.143 144.468 145.176C138.563 153.911 136.045 164.739 128.655 172.261C120.26 180.806 110.697 192.903 98.781 191.68C86.2243 190.391 81.3763 173.634 71.0681 166.349C63.1875 160.779 53.5866 158.671 45.2348 153.836C35.6807 148.305 25.3904 143.731 17.9344 135.59C9.84492 126.758 -1.72961 116.501 0.217005 104.683C2.41494 91.3388 18.9919 85.6688 27.8416 75.4429C33.6481 68.7334 40.8428 62.7659 43.7479 54.3818C48.0301 42.0235 41.0073 26.4795 48.518 15.7718C55.1921 6.25674 68.8938 4.32239 80.3268 2.23283C91.7255 0.149545 104.709 -2.09458 114.764 3.66434Z" fill="#19E7C8" fill-opacity="0.4"/>
</svg>
