<svg width="171" height="84" viewBox="0 0 171 84" fill="none" xmlns="http://www.w3.org/2000/svg">
<path fill-rule="evenodd" clip-rule="evenodd" d="M116.102 6.77344C115.871 6.83546 115.639 6.89777 115.405 6.96028C95.4386 12.3079 40.0511 30.161 13.5835 38.6923C8.90239 40.2012 5.12591 41.4185 2.60998 42.2234C1.55795 42.56 0.432242 41.98 0.0956555 40.928C-0.240931 39.8759 0.339056 38.7502 1.39109 38.4136C3.88437 37.6159 7.63662 36.4064 12.294 34.9052C38.7204 26.3868 94.2886 8.4749 114.37 3.09646C114.608 3.0329 114.845 2.96937 115.081 2.90598C117.747 2.1913 120.348 1.49434 122.591 0.967211C124.967 0.408938 127.178 -0.019405 128.691 0.000678203C129.087 0.00594547 129.524 0.0415727 129.947 0.152027C130.351 0.257463 130.928 0.479226 131.392 0.993499C131.922 1.58016 132.093 2.30985 132.019 2.97799C131.954 3.56522 131.709 4.06209 131.483 4.42674C131.031 5.15852 130.289 5.93418 129.379 6.74918C128.439 7.59115 127.2 8.57984 125.638 9.73296C119.795 14.0471 113.712 18.0466 107.691 22.0062C105.065 23.7328 102.451 25.4519 99.8729 27.1862C91.335 32.9301 83.0986 38.9012 75.7312 46.0844C75.7317 46.0839 75.7288 46.0869 75.7225 46.0935C75.6856 46.1322 75.5318 46.2933 75.2556 46.5898C74.954 46.9134 74.5408 47.3615 74.0597 47.8923C73.0958 48.9559 71.87 50.34 70.7289 51.7138C69.9985 52.5933 69.3281 53.4385 68.7887 54.1769C69.9461 54.1079 71.1299 53.9441 72.3522 53.7261C73.4333 53.5333 74.5183 53.3033 75.6385 53.0658L75.6549 53.0623C76.759 52.8281 77.8982 52.5865 79.0405 52.383C97.0233 49.1796 114.839 45.1732 132.713 41.1533C134.209 40.817 135.769 40.4601 137.375 40.0931C144.768 38.4027 153.104 36.4967 160.366 35.3836C160.86 35.3078 161.357 35.2194 161.882 35.1258L162.093 35.0884C162.687 34.9829 163.315 34.8736 163.951 34.7853C165.22 34.6092 166.611 34.5035 168.045 34.6891C169.151 34.8321 169.748 35.6499 169.952 36.3233C170.122 36.8845 170.067 37.4115 170.006 37.7365C169.937 38.1 169.813 38.4602 169.65 38.7821C169.501 39.0751 169.241 39.4956 168.816 39.8291C168.016 40.4559 166.43 41.3578 164.687 42.291C162.881 43.258 160.72 44.3543 158.639 45.3884C156.555 46.4238 154.539 47.4027 153.017 48.1363C152.256 48.5032 151.617 48.809 151.156 49.0299L150.603 49.2941L150.442 49.3715C150.424 49.3803 150.41 49.3868 150.401 49.3914L150.382 49.4003C148.157 50.51 145.907 51.6035 143.652 52.6994C134.537 57.1299 125.342 61.599 117.361 67.3274C117.317 67.3592 117.271 67.3921 117.223 67.4262C116.931 67.6344 116.579 67.8863 116.216 68.1818C116.066 68.3047 115.928 68.4235 115.805 68.5366C119.892 69.5932 124.689 69.7906 129.666 69.6553C132.208 69.5862 134.76 69.4321 137.258 69.2725C137.545 69.2541 137.831 69.2357 138.117 69.2173C140.305 69.0766 142.452 68.9385 144.462 68.8634C144.726 68.8536 145.541 68.8125 146.701 68.754C151.259 68.524 161.134 68.026 163.69 68.1063C164.706 68.1383 165.761 68.322 166.605 68.9043C167.598 69.5896 168.015 70.624 167.991 71.6553C167.971 72.5456 167.63 73.3807 167.287 74.039C166.925 74.7313 166.449 75.4316 165.953 76.0943C165.173 77.1337 164.227 78.2286 163.394 79.1925C163.177 79.4444 162.967 79.6874 162.769 79.918C162.275 80.4962 161.861 80.9962 161.55 81.4154C161.237 81.8363 161.138 82.0344 161.124 82.0635C161.122 82.0667 161.122 82.0678 161.122 82.067C160.773 83.1149 159.64 83.6812 158.592 83.3319C157.544 82.9826 156.978 81.85 157.327 80.8021C157.543 80.1558 157.973 79.5228 158.337 79.0324C158.736 78.4942 159.228 77.9051 159.729 77.3186C159.958 77.051 160.19 76.7826 160.422 76.5142C161.243 75.5629 162.065 74.6116 162.752 73.6953C163.187 73.1151 163.521 72.6089 163.741 72.1871C163.754 72.1623 163.766 72.1384 163.778 72.1152C163.713 72.1105 163.642 72.1068 163.564 72.1043C161.212 72.0304 152.038 72.4917 147.315 72.7293C145.956 72.7976 144.965 72.8474 144.612 72.8606C142.659 72.9336 140.57 73.0679 138.374 73.2091C138.089 73.2274 137.802 73.2459 137.513 73.2643C135.014 73.424 132.397 73.5825 129.775 73.6538C124.556 73.7956 119.164 73.5992 114.431 72.3102C113.286 71.9984 111.955 71.3836 111.437 70.0189C110.906 68.6195 111.585 67.3951 112.019 66.786C112.506 66.1017 113.163 65.5105 113.688 65.082C114.159 64.6981 114.624 64.3665 114.912 64.1614C114.955 64.1307 114.994 64.1027 115.029 64.0779C123.315 58.1298 132.905 53.4712 142.047 49.0302C144.265 47.9526 146.457 46.8879 148.598 45.8206C148.65 45.7943 148.864 45.6918 149.203 45.53C149.682 45.3009 150.409 44.9528 151.281 44.5329C152.795 43.8033 154.795 42.8319 156.859 41.8063C158.644 40.9196 160.467 39.9966 162.061 39.1564C161.703 39.2192 161.337 39.2814 160.972 39.3374C153.869 40.4261 145.715 42.29 138.323 43.9797C136.703 44.3501 135.119 44.7122 133.591 45.0558L133.569 45.0608C115.716 49.0758 97.8205 53.1006 79.742 56.321C78.6693 56.5121 77.5887 56.7411 76.4684 56.9787L76.454 56.9818C75.349 57.2161 74.2053 57.4587 73.0545 57.6639C70.7442 58.076 68.3004 58.3584 65.7971 58.1325C65.1967 58.0784 64.3817 57.7751 63.9275 56.9171C63.5555 56.2143 63.6481 55.5254 63.7161 55.1965C63.8586 54.5065 64.2454 53.8032 64.5818 53.2559C65.3143 52.0641 66.4782 50.5712 67.6518 49.1582C70.0115 46.3171 72.714 43.4396 72.9388 43.2204C80.568 35.7819 89.0429 29.6511 97.6402 23.8673C100.294 22.0819 102.951 20.3351 105.598 18.5942C111.576 14.6635 117.509 10.7627 123.262 6.51503C124.418 5.66137 125.352 4.92966 126.09 4.30748C125.343 4.44692 124.479 4.63241 123.506 4.86114C121.327 5.37322 118.787 6.05388 116.102 6.77344ZM128.11 2.27209C128.11 2.27206 128.108 2.27558 128.105 2.28278C128.108 2.27573 128.11 2.27213 128.11 2.27209ZM115.193 69.2432C115.192 69.2434 115.196 69.2333 115.208 69.2118C115.2 69.2321 115.194 69.2429 115.193 69.2432Z" fill="#19E7C8"/>
</svg>
