<svg width="50" height="62" viewBox="0 0 50 62" fill="none" xmlns="http://www.w3.org/2000/svg">
<path fill-rule="evenodd" clip-rule="evenodd" d="M47.0302 10.085C47.7218 11.0006 47.5397 12.3021 46.6235 12.992L6.14821 43.4691C5.23202 44.1589 3.92866 43.9759 3.23708 43.0603C2.54549 42.1447 2.72757 40.8432 3.64376 40.1533L44.1191 9.67627C45.0353 8.9864 46.3386 9.1694 47.0302 10.085Z" fill="#19E7C8"/>
<path fill-rule="evenodd" clip-rule="evenodd" d="M41.1851 35.7537C41.7433 36.7592 41.3805 38.0267 40.3748 38.5846L12.7486 53.9105C11.7429 54.4684 10.4751 54.1056 9.91688 53.1C9.35868 52.0944 9.72146 50.827 10.7272 50.269L38.3534 34.9431C39.3591 34.3852 40.6269 34.7481 41.1851 35.7537Z" fill="#19E7C8"/>
</svg>
