<svg width="66" height="66" viewBox="0 0 66 66" fill="none" xmlns="http://www.w3.org/2000/svg">
<path fill-rule="evenodd" clip-rule="evenodd" d="M9.19358 29.9627C8.71758 29.014 9.09165 27.8813 10.0291 27.4326L45.1265 10.6348C46.0639 10.1861 47.2097 10.5914 47.6857 11.5401C48.1617 12.4888 47.7876 13.6215 46.8502 14.0702L11.7528 30.8681C10.8154 31.3167 9.66958 30.9114 9.19358 29.9627Z" fill="#19E7C8"/>
<path fill-rule="evenodd" clip-rule="evenodd" d="M14.9067 49.138C14.3012 48.3251 14.487 47.1483 15.3217 46.5094C18.8061 43.8427 22.2853 41.1261 25.7755 38.401C33.8112 32.1266 41.9055 25.8065 50.2562 19.944C51.1161 19.3404 52.2747 19.5316 52.8441 20.3709C53.4135 21.2103 53.178 22.3801 52.3182 22.9837C44.0524 28.7866 36.0883 35.0052 28.0901 41.2504C24.581 43.9905 21.0653 46.7357 17.5146 49.4531C16.6799 50.092 15.5123 49.9509 14.9067 49.138Z" fill="#19E7C8"/>
<path fill-rule="evenodd" clip-rule="evenodd" d="M60.3173 27.308C61.0621 27.9666 61.0897 29.1469 60.3791 29.9444C53.2507 37.944 46.4425 46.1993 39.608 54.4867C36.8608 57.8179 34.1093 61.1543 31.331 64.4813C30.6464 65.301 29.4683 65.4543 28.6995 64.8236C27.9307 64.193 27.8624 63.0172 28.5469 62.1974C31.2892 58.9135 34.0199 55.6024 36.7558 52.285C43.6104 43.9733 50.4976 35.6221 57.6821 27.5595C58.3928 26.762 59.5726 26.6494 60.3173 27.308Z" fill="#19E7C8"/>
</svg>
