<svg width="138" height="145" viewBox="0 0 138 145" fill="none" xmlns="http://www.w3.org/2000/svg">
<g clip-path="url(#clip0_23_5)">
<path fill-rule="evenodd" clip-rule="evenodd" d="M37.4992 94.2624C37.5622 93.1577 37.6113 92.2055 37.6348 91.702C37.7707 88.6379 38.9728 81.1023 38.1318 75.5042C37.4915 71.2331 35.6636 68.0737 31.8589 67.9382C28.4008 67.8151 25.5976 70.7033 23.5621 75.2211C19.1813 84.9445 18.1111 102.169 19.0467 107.508C19.1491 108.091 19.6688 108.49 20.21 108.4C20.7488 108.31 21.1044 107.767 21.002 107.185C20.1053 102.061 21.1553 85.5328 25.3607 76.1981C27.0049 72.5498 29.0675 69.9686 31.861 70.0687C34.618 70.166 35.7022 72.6755 36.1663 75.7718C36.9858 81.2198 35.7795 88.5461 35.6457 91.5295C35.5627 93.3998 35.0576 100.517 35.152 101.143C35.2697 101.927 35.8382 102.068 36.0276 102.1C36.1744 102.125 36.9119 102.198 37.1492 101.272C40.5407 88.0736 54.363 70.6434 71.1565 61.1269C87.8023 51.6939 107.432 50.0611 122.695 68.4849C123.067 68.9317 123.697 68.9846 124.103 68.6044C124.508 68.2216 124.536 67.5482 124.164 67.1014C108.171 47.7977 87.6186 49.3529 70.1801 59.2348C55.4828 67.5628 43.045 81.8245 37.4992 94.2624Z" fill="#19E7C8" stroke="#19E7C8" stroke-width="2"/>
<path fill-rule="evenodd" clip-rule="evenodd" d="M122.534 66.9558C120.213 66.5058 117.914 65.979 115.565 65.7209C109.307 65.0321 102.713 65.7328 96.9601 68.2655C96.4571 68.4884 96.2323 69.1102 96.4541 69.6549C96.6789 70.2016 97.2669 70.4632 97.768 70.2435C103.227 67.8363 109.489 67.1891 115.426 67.8431C118.115 68.1399 120.741 68.7943 123.407 69.2735C123.54 69.2956 124.694 69.5416 124.948 69.5222C125.542 69.4809 125.75 69.0567 125.822 68.8463C125.885 68.6714 125.92 68.4445 125.864 68.1639C125.817 67.9338 125.632 67.5164 125.275 67.0108C124.138 65.3877 120.991 61.9918 120.528 61.3777C115.216 54.3395 111.347 46.8746 107.094 39.1182C106.81 38.6043 106.198 38.4173 105.728 38.7021C105.257 38.9869 105.105 39.6364 105.386 40.1508C109.692 48.0058 113.62 55.5598 118.997 62.6827C119.314 63.1059 121.188 65.3499 122.534 66.9558Z" fill="#19E7C8" stroke="#19E7C8" stroke-width="2"/>
</g>
<defs>
<clipPath id="clip0_23_5">
<rect width="113" height="122" fill="white" transform="translate(27.782) rotate(13.163)"/>
</clipPath>
</defs>
</svg>
