<svg width="179" height="173" viewBox="0 0 179 173" fill="none" xmlns="http://www.w3.org/2000/svg">
<path class="blob" d="M110.772 40.5361C117.751 48.6579 124.092 56.8393 132.561 63.3928C147.093 74.6377 179.512 74.3512 178.151 92.6751C176.715 112.007 139.921 105.143 128.308 120.665C119.162 132.889 135.263 155.476 123.703 165.449C112.964 174.713 96.3177 159.337 82.1798 160.458C66.7118 161.684 53.15 175.45 37.9678 172.246C22.1425 168.907 2.42292 159.169 0.174455 143.152C-2.40841 124.754 24.501 113.872 27.1925 95.4892C29.219 81.6477 11.6392 70.7637 12.8139 56.8242C14.1135 41.4028 21.9901 26.258 33.8631 16.3314C46.2918 5.94017 63.76 -3.55305 79.2131 1.31034C95.4982 6.43557 99.6452 27.5875 110.772 40.5361Z" fill="#19E7C8" fill-opacity="0.39"/>
</svg>
