<svg width="124" height="126" viewBox="0 0 124 126" fill="none" xmlns="http://www.w3.org/2000/svg">
<path d="M45.3031 5.33419C55.6412 6.4339 64.7648 11.3842 75.0259 13.4968C90.3099 16.6436 109.87 7.83858 119.959 20.7049C129.632 33.0403 118.558 50.3144 115.519 65.1362C112.979 77.52 112.786 91.7359 103.74 99.806C95.0265 107.58 80.9124 101.91 69.9218 105.816C56.0238 110.754 46.471 128.713 31.582 125.446C16.8894 122.223 5.25185 105.96 1.35026 90.7721C-2.2884 76.6078 12.2494 65.4515 12.475 51.0679C12.7196 35.4748 -5.99654 17.893 2.68294 5.80137C11.1381 -5.9778 30.6987 3.78066 45.3031 5.33419Z" fill="#19E7C8" fill-opacity="0.32"/>
</svg>
