<svg width="164" height="135" viewBox="0 0 164 135" fill="none" xmlns="http://www.w3.org/2000/svg">
<path d="M93.2618 6.19425C105.537 2.51882 118.482 -2.56729 130.632 1.50474C144.691 6.21659 165.402 15.0857 163.76 29.822C161.801 47.4136 127.103 45.7177 123.771 63.1018C119.712 84.2812 154.477 102.625 146.008 122.458C139.301 138.164 110.065 137.727 96.1053 127.888C79.8658 116.443 92.7669 83.6602 75.9502 73.0808C62.2292 64.4488 45.7396 91.097 30.2139 86.4356C14.9731 81.8597 2.54395 66.1654 0.40006 50.3975C-1.75469 34.5499 4.82196 13.8478 19.472 7.43148C36.1949 0.107251 53.593 19.4116 71.847 19.1056C80.3534 18.9629 85.1116 8.63448 93.2618 6.19425Z" fill="#19E7C8" fill-opacity="0.39"/>
</svg>
