<svg width="166" height="182" viewBox="0 0 166 182" fill="none" xmlns="http://www.w3.org/2000/svg">
<path d="M127.489 59.5468C132.885 65.8467 139.406 71.0274 143.784 78.0728C148.625 85.8634 151.68 94.4273 154.573 103.132C158.216 114.097 169.387 126.669 163.169 136.409C156.304 147.164 136.008 138.128 126.677 146.83C117.946 154.973 126.342 175.092 115.762 180.621C105.531 185.968 94.7239 170.964 83.2716 169.514C74.0675 168.348 65.035 174.674 55.9022 173.041C46.5967 171.378 38.5871 165.671 30.9124 160.152C23.0242 154.48 15.0953 148.435 10.0984 140.102C5.07892 131.732 3.32313 121.871 2.14574 112.182C0.983568 102.618 -0.606932 92.3849 3.22571 83.5461C7.06088 74.7014 18.4959 71.4678 23.399 63.1675C28.6379 54.2986 27.3556 42.8255 32.538 33.9235C38.603 23.5054 45.4457 12.4944 56.1389 6.92871C66.8157 1.37157 81.4458 -3.13143 91.7368 3.11137C103.964 10.5287 104.082 28.5743 111.735 40.6551C116.161 47.6411 122.109 53.2659 127.489 59.5468Z" fill="#19E7C8" fill-opacity="0.39"/>
</svg>
