<svg width="173" height="182" viewBox="0 0 173 182" fill="none" xmlns="http://www.w3.org/2000/svg">
<path d="M103.642 20.4942C114.309 23.2563 125.373 14.0319 136.15 16.3241C147.237 18.682 158.702 24.2272 165.12 33.5695C171.563 42.9485 173.456 55.8272 170.908 66.9175C168.298 78.2806 153.003 83.7996 150.947 95.2758C149.093 105.624 161.629 114.602 160.491 125.053C159.403 135.055 151.779 143.247 144.926 150.613C137.837 158.233 128.958 163.733 119.84 168.75C109.985 174.172 100.123 181.942 88.8865 181.445C77.6058 180.946 69.0875 171.194 59.0292 166.063C49.658 161.282 40.0248 157.522 31.0947 151.961C21.0408 145.7 7.72174 141.778 2.76269 131.022C-2.21836 120.218 0.116718 106.491 5.16363 95.7177C10.2134 84.9385 23.6308 80.7877 30.7615 71.2565C35.4291 65.0175 37.9061 57.4212 39.5178 49.798C42.1923 37.1478 35.9097 22.0817 43.3881 11.534C49.8258 2.45401 63.549 -1.26168 74.5586 0.375516C86.3185 2.12431 92.1326 17.5139 103.642 20.4942Z" fill="#19E7C8" fill-opacity="0.39"/>
</svg>
