<svg width="189" height="182" viewBox="0 0 189 182" fill="none" xmlns="http://www.w3.org/2000/svg">
<path d="M123.328 6.15095C139.094 12.8776 149.56 27.0077 160.333 40.3404C171.091 53.6548 182.396 66.9006 185.944 83.6464C189.699 101.369 189.718 120.906 180.736 136.639C171.916 152.09 154.198 159.226 138.271 167.153C123.429 174.539 108.137 181.04 91.5598 181.019C74.6425 180.997 58.2961 175.824 43.844 167.031C28.7858 157.868 15.2132 145.882 7.64927 129.961C-0.116939 113.614 -1.31297 95.0942 1.15043 77.1645C3.68396 58.7244 9.19669 40.1682 21.8603 26.5268C34.5165 12.8933 52.5592 5.80222 70.7975 2.13976C88.3707 -1.38915 106.841 -0.882991 123.328 6.15095Z" fill="#19E7C8" fill-opacity="0.39"/>
</svg>
