<svg width="188" height="188" viewBox="0 0 188 188" fill="none" xmlns="http://www.w3.org/2000/svg">
<path opacity="0.519872" d="M123.823 2.74296C137.088 6.20177 149.868 11.8013 160.357 20.6278C170.954 29.545 179.91 40.7967 184.552 53.8453C189.092 66.6065 187.34 80.4744 186.456 93.9902C185.613 106.892 184.168 119.67 179.46 131.713C174.657 143.996 168.576 156.13 158.731 164.905C148.916 173.653 136.053 177.778 123.476 181.611C111.076 185.39 98.3781 187.78 85.426 187.244C72.0987 186.693 58.4417 185.02 46.8389 178.44C35.231 171.857 26.8129 160.97 19.4598 149.834C12.293 138.98 7.6356 126.886 4.46875 114.271C1.24623 101.434 -1.29942 88.2585 0.718716 75.1778C2.77425 61.8547 8.68323 49.4876 16.1912 38.2912C23.8147 26.9224 32.808 16.0674 44.7918 9.45261C56.6918 2.88408 70.6331 1.91446 84.1768 0.764607C97.5067 -0.367092 110.877 -0.632327 123.823 2.74296Z" fill="#19E7C8" fill-opacity="0.39"/>
</svg>
