<svg width="154" height="152" viewBox="0 0 154 152" fill="none" xmlns="http://www.w3.org/2000/svg">
<path d="M112.051 22.3606C122.007 30.477 128.461 40.8598 135.289 51.4254C142.794 63.038 154.33 73.7023 153.993 87.2609C153.649 101.085 142.58 112.193 133.505 123.122C124.204 134.323 115.487 148.042 100.737 151.396C86.127 154.718 72.8374 143.393 58.1817 140.25C42.8673 136.965 24.3796 142.383 12.744 132.525C1.07547 122.638 -0.0509826 105.666 0.00167105 90.9551C0.0489366 77.75 8.92561 66.7336 13.0248 54.095C17.7518 39.5206 14.1016 21.4694 25.9371 10.9905C37.912 0.388152 56.8638 -1.34534 73.2051 0.812306C88.427 2.82215 100.471 12.9206 112.051 22.3606Z" fill="#19E7C8" fill-opacity="0.39"/>
</svg>
