<svg width="118" height="112" viewBox="0 0 118 112" fill="none" xmlns="http://www.w3.org/2000/svg">
<path d="M92.9809 3.70906C104.556 10.4383 106.378 24.4082 110.718 36.1007C114.619 46.6085 120.5 57.4461 116.855 68.0264C113.309 78.3178 101.246 83.5048 91.9998 90.4333C83.0662 97.1272 75.0724 104.76 63.8825 107.719C50.8679 111.16 35.5098 115.008 24.1594 108.372C12.842 101.755 13.4974 87.1269 9.13417 75.7087C5.23124 65.4951 -0.0464218 55.9845 0.0176221 45.1952C0.0954762 32.0792 -1.25461 16.6776 9.53751 7.75865C20.3429 -1.17131 37.4774 2.79017 52.1926 2.07603C66.1232 1.39996 81.2964 -3.08386 92.9809 3.70906Z" fill="#19E7C8" fill-opacity="0.39"/>
</svg>
