<svg width="104" height="99" viewBox="0 0 104 99" fill="none" xmlns="http://www.w3.org/2000/svg">
<path d="M53.6297 0.69862C62.0046 4.80606 55.8394 21.2473 65.0165 23.6793C76.6105 26.7518 87.1613 9.37105 98.6863 12.6391C106.721 14.9175 103.4 26.9859 102.881 34.4163C102.427 40.9287 98.2448 46.5828 95.8864 52.767C93.8976 57.9817 93.7372 63.846 89.9824 68.2393C86.2945 72.5544 79.7674 73.9175 74.9532 77.2596C69.785 80.8475 65.9335 85.5816 60.4287 88.7563C53.282 92.8779 46.0236 100.571 37.7477 98.7164C29.4388 96.8545 29.6941 85.1943 23.0772 80.3864C16.7201 75.7672 3.90415 78.4591 0.672181 71.777C-2.7096 64.7851 7.72795 57.8816 8.53165 50.3131C9.17583 44.2468 3.71047 38.5408 4.83985 32.53C6.00331 26.3377 9.76378 20.4791 14.9454 16.177C20.0715 11.9211 27.4774 10.9776 33.8883 8.41247C40.5151 5.76094 47.27 -2.42052 53.6297 0.69862Z" fill="#19E7C8" fill-opacity="0.39"/>
</svg>
