<svg width="305" height="34" viewBox="0 0 305 34" fill="none" xmlns="http://www.w3.org/2000/svg">
<path fill-rule="evenodd" clip-rule="evenodd" d="M265.339 3.4975C259.41 3.7261 253.661 3.94778 248.477 3.94778H81.1682C81.1682 3.94778 81.1682 3.94684 81.1682 3.94499C81.168 3.89848 81.1679 3.27575 81.168 2.44778C81.168 1.99048 81.1681 1.47058 81.1682 0.950568C81.1682 0.949637 81.1682 0.948707 81.1682 0.947776H248.477C253.61 0.947776 259.25 0.730022 265.133 0.502928C268.432 0.375539 271.808 0.245212 275.213 0.148734C284.633 -0.118162 294.209 -0.121979 302.648 0.959954C302.96 0.999994 303.241 1.04489 303.471 1.09939C303.583 1.12596 303.725 1.16443 303.868 1.22242L303.873 1.22447C303.96 1.25926 304.31 1.40045 304.58 1.74983C304.751 1.97143 304.927 2.32954 304.899 2.78604C304.871 3.22641 304.667 3.5392 304.513 3.71282C304.255 4.00473 303.947 4.12823 303.864 4.16158L303.861 4.16275C303.624 4.25787 303.357 4.31277 303.161 4.34813C302.327 4.49911 300.765 4.62936 299.024 4.74917C297.653 4.8435 296.133 4.93374 294.648 5.02193C292.235 5.16522 289.914 5.30308 288.469 5.44428C273.043 6.95186 257.614 8.25449 242.173 9.35795C242.179 9.41008 242.183 9.46413 242.184 9.52012C242.195 10.1364 241.848 10.5228 241.713 10.6541C241.557 10.8063 241.4 10.8963 241.32 10.9392C241.032 11.0931 240.65 11.196 240.335 11.2735C239.963 11.3652 239.468 11.4697 238.833 11.59C225.39 14.138 211.769 16.0729 198.253 17.993C196.493 18.2429 194.736 18.4925 192.981 18.7433C187.473 19.53 178.203 20.5354 169.031 21.5301C165.376 21.9265 161.736 22.3212 158.357 22.6997C161.168 22.6912 163.98 22.6716 166.796 22.6521C170.56 22.6259 174.33 22.5998 178.109 22.5998H213.594C214.319 22.5998 215.049 22.5975 215.782 22.5952C217.258 22.5906 218.745 22.586 220.224 22.5998C220.305 22.6006 220.39 22.6025 220.467 22.6072C220.503 22.6095 220.562 22.6138 220.629 22.6232C220.662 22.6278 220.718 22.6366 220.785 22.6528C220.829 22.6635 220.986 22.7015 221.164 22.7995L221.165 22.8004C221.235 22.8388 222.004 23.2607 221.94 24.2175C221.91 24.6561 221.702 24.9578 221.567 25.1107C221.432 25.2633 221.297 25.3541 221.226 25.3979C221.083 25.4857 220.957 25.5292 220.915 25.5435C220.857 25.5633 220.808 25.5762 220.778 25.5836C220.674 25.6091 220.572 25.6234 220.524 25.6301C220.293 25.6617 219.889 25.6971 219.464 25.7301C218.588 25.7984 217.417 25.872 216.819 25.899C197.296 26.7791 177.791 27.8777 158.276 29.0554C150.442 29.5281 142.608 30.0001 134.775 30.4722C132.941 30.5827 131.107 30.6932 129.273 30.8037C138.898 30.8014 148.523 30.7815 158.15 30.7616C168.409 30.7405 178.671 30.7193 188.934 30.7193C189.763 30.7193 190.434 31.3909 190.434 32.2193C190.434 33.0477 189.763 33.7193 188.934 33.7193C178.684 33.7193 168.429 33.7404 158.173 33.7616C137.652 33.8039 117.124 33.8463 96.6035 33.7192C95.9203 33.715 95.2124 33.7237 94.4889 33.7326C92.5406 33.7566 90.4787 33.782 88.478 33.5597C88.3971 33.5508 88.2741 33.5345 88.143 33.5004C88.0795 33.4838 87.9648 33.4507 87.8343 33.3876C87.7409 33.3424 87.429 33.1855 87.2013 32.8231C87.0708 32.6157 86.9711 32.3436 86.9692 32.0273C86.9673 31.7166 87.0603 31.4596 87.1643 31.2752C87.3477 30.9497 87.6004 30.7834 87.6801 30.7326C87.8692 30.6121 88.0514 30.5547 88.1075 30.5371L88.1085 30.5368C88.3761 30.4525 88.7642 30.391 89.0608 30.3481C89.7357 30.2504 90.6229 30.1581 91.0838 30.1223C94.7694 29.8365 98.4702 29.6282 102.152 29.421C103.764 29.3304 105.371 29.2399 106.972 29.1432C116.184 28.5871 125.395 28.032 134.607 27.4769C142.437 27.0051 150.266 26.5332 158.095 26.0608C160.289 25.9284 162.483 25.797 164.677 25.6668C157.871 25.7122 151.046 25.7411 144.246 25.5994C143.214 25.5779 142.405 25.5407 141.816 25.4858C141.524 25.4586 141.253 25.4242 141.022 25.3774C140.907 25.354 140.775 25.3225 140.643 25.2774C140.53 25.2391 140.318 25.1587 140.106 24.998C139.901 24.8429 139.462 24.4218 139.476 23.7143C139.489 23.0646 139.883 22.6769 140.026 22.5514C140.32 22.2939 140.676 22.1705 140.821 22.1211C141.219 21.9844 141.782 21.8585 142.417 21.7382C145.002 21.2487 150.12 20.6145 156.174 19.9268C160.102 19.4806 164.442 19.01 168.79 18.5385C177.928 17.5475 187.1 16.5529 192.557 15.7734C194.314 15.5223 196.073 15.2725 197.832 15.0226C205.859 13.8822 213.895 12.7406 221.897 11.471C209.212 11.8915 196.526 12.3784 183.84 12.9001C183.916 13.4784 183.809 14.1494 183.537 14.4768C183.361 14.5942 183.088 14.7152 183.004 14.7401C182.959 14.7514 182.886 14.7667 182.857 14.7717C182.805 14.7801 182.763 14.7842 182.747 14.7856C182.71 14.7891 182.676 14.791 182.657 14.792C182.58 14.796 182.461 14.7993 182.322 14.8024C182.031 14.8089 181.566 14.8163 180.953 14.8245C178.951 14.8514 175.318 14.8883 170.856 14.9337C169.847 14.9439 168.795 14.9546 167.711 14.9657C155.939 15.0861 140.265 15.2552 132.436 15.4499C128.339 15.5519 120.177 15.7845 113.991 15.9608L113.835 15.9653C110.734 16.0536 108.148 16.1273 106.855 16.1622C106.532 16.1709 106.287 16.1773 106.135 16.1809C106.061 16.1826 106.001 16.1838 105.963 16.1843C105.954 16.1844 105.939 16.1845 105.923 16.1844C105.917 16.1844 105.899 16.1843 105.877 16.1835C105.865 16.1831 105.834 16.1815 105.814 16.1801C105.776 16.1768 105.631 16.1551 105.526 16.1301C105.16 15.8991 104.941 15.3474 104.907 14.7738H32.0252C27.4151 14.7747 22.8052 14.7744 18.1955 14.7741C15.8913 14.7739 13.587 14.7738 11.2829 14.7738H0.000536395C0.000535837 14.7725 0.000477654 14.7712 0.000477097 14.77C6.84426e-05 14.716 -7.78466e-05 14.0961 3.88367e-05 13.2738C-7.78466e-05 12.4514 6.84426e-05 11.8315 0.000477097 11.7776C0.000477654 11.7763 0.000478211 11.775 0.000478769 11.7738H31.9578C84.3706 11.763 136.748 11.5875 189.097 9.36934C220.29 8.04757 251.373 5.94339 282.441 3.00962C280.074 3.02964 277.687 3.07986 275.298 3.14753C271.967 3.24191 268.625 3.37077 265.339 3.4975ZM106.019 16.181C106.018 16.181 106.019 16.181 106.019 16.181V16.181ZM141.738 24.9805C141.737 24.9804 141.745 24.9767 141.763 24.9697C141.748 24.9771 141.739 24.9805 141.738 24.9805Z" fill="#19E7C8"/>
</svg>
